<svg width="340" height="323" viewBox="0 0 340 323" fill="none" xmlns="http://www.w3.org/2000/svg">
<path d="M330 196.5C330 271.887 264.257 323 170 323C75.7434 323 9.99999 271.887 9.99999 196.5C9.99999 121.113 75.7434 60 170 60C264.257 60 330 121.113 330 196.5Z" fill="black"/>
<path d="M311.706 153.903C260.353 142.987 288.714 149.016 260.353 142.987C231.991 136.959 260.353 142.987 209 132.072C217.518 91.9993 259.852 5.88698 288.213 11.9154C316.574 17.9438 320.223 113.83 311.706 153.903Z" fill="black"/>
<path d="M27.8602 152.903C79.2129 141.987 50.8516 148.016 79.2129 141.987C107.574 135.959 79.2129 141.987 130.566 131.072C122.048 90.9993 79.7141 4.88698 51.3528 10.9154C22.9914 16.9438 19.3425 112.83 27.8602 152.903Z" fill="black"/>
<path d="M274.162 251.407C275.788 246.719 270.456 245.425 266.079 247.762C263.403 249.191 260.129 250.153 256.281 249.898C244.217 249.101 231.354 223.593 207.23 215.621C191.74 210.504 180.89 213.927 175.108 217.035C172.207 218.593 168.261 218.593 165.361 217.034C159.579 213.927 148.733 210.504 133.246 215.621C109.123 223.593 96.2547 249.101 84.195 249.898C80.3454 250.153 77.069 249.191 74.3921 247.761C70.0143 245.424 64.6834 246.72 66.3113 251.408C67.443 254.667 69.463 258.471 72.9388 262.654C84.195 276.207 115.556 281.9 135.662 276.207C149.102 272.399 158.817 265.182 164.464 259.984C167.494 257.194 172.808 257.329 175.759 260.203C181.252 265.554 190.881 272.872 204.815 276.207C225.136 281.07 256.281 276.207 267.538 262.654C271.013 258.47 273.031 254.667 274.162 251.407Z" fill="white"/>
</svg>
